# xmcd
#
# Track frame offsets:
# 150
# 4289
# 14396
# 30151
# 45708
# 68928
# 82718
# 94890
# 107671
# 122923
# 136035
# 162066
# 171293
# 186725
# 203323
# 211774
# 225852
# 238494
# 256614
# 271623
# 288840
# 309323
#
# Disc length: 4285 seconds
#
# Revision: 2
# Processed by: cddbd v1.5PL3 Copyright (c) Steve Scherf et al.
# Submitted via: Axialis_AX_CDPlayer 2.6
#
DISCID=1310bb16
DTITLE=Blue Sky Boys - In Concert, 1964
DYEAR=1900
DGENRE=
TTITLE0=Are You Frim Dixie
TTITLE1=Quit That Ticklin' Me
TTITLE2=I'm Just Here To Get My Baby Out Of Jail
TTITLE3=Worried Man Blues
TTITLE4=After The Ball
TTITLE5=Behind These Prison Walls Of Love
TTITLE6=The Last Letter
TTITLE7=The Fox
TTITLE8=The Sweetest Gift
TTITLE9=Only One Step More
TTITLE10=Uncle Josh Comedy Skit
TTITLE11=Don't Trade
TTITLE12=Kentucky
TTITLE13=If I Could Hear My Mother Pray Again
TTITLE14=Sweetheart Mountain Rose
TTITLE15=It Was Midnight On The Stormy Deep
TTITLE16=Beautiful
TTITLE17=In The Hills Of Roane County
TTITLE18=I'm Saved
TTITLE19=Whispering Hope
TTITLE20=Butcher's boy
TTITLE21=Are you from Dixie?
EXTD=
EXTT0=
EXTT1=
EXTT2=
EXTT3=
EXTT4=
EXTT5=
EXTT6=
EXTT7=
EXTT8=
EXTT9=
EXTT10=
EXTT11=
EXTT12=
EXTT13=
EXTT14=
EXTT15=
EXTT16=
EXTT17=
EXTT18=
EXTT19=
EXTT20=
EXTT21=
PLAYORDER=
